<svg width="40" height="40" viewBox="0 0 40 40" fill="none" xmlns="http://www.w3.org/2000/svg">
<path d="M20 33.3334V36.6667" stroke="#00F2FF" stroke-width="3.33333" stroke-linecap="round" stroke-linejoin="round"/>
<path d="M20 3.33337V6.66671" stroke="#00F2FF" stroke-width="3.33333" stroke-linecap="round" stroke-linejoin="round"/>
<path d="M28.3359 33.3334V36.6667" stroke="#00F2FF" stroke-width="3.33333" stroke-linecap="round" stroke-linejoin="round"/>
<path d="M28.3359 3.33337V6.66671" stroke="#00F2FF" stroke-width="3.33333" stroke-linecap="round" stroke-linejoin="round"/>
<path d="M3.33594 20H6.66927" stroke="#00F2FF" stroke-width="3.33333" stroke-linecap="round" stroke-linejoin="round"/>
<path d="M3.33594 28.3334H6.66927" stroke="#00F2FF" stroke-width="3.33333" stroke-linecap="round" stroke-linejoin="round"/>
<path d="M3.33594 11.6666H6.66927" stroke="#00F2FF" stroke-width="3.33333" stroke-linecap="round" stroke-linejoin="round"/>
<path d="M33.3359 20H36.6693" stroke="#00F2FF" stroke-width="3.33333" stroke-linecap="round" stroke-linejoin="round"/>
<path d="M33.3359 28.3334H36.6693" stroke="#00F2FF" stroke-width="3.33333" stroke-linecap="round" stroke-linejoin="round"/>
<path d="M33.3359 11.6666H36.6693" stroke="#00F2FF" stroke-width="3.33333" stroke-linecap="round" stroke-linejoin="round"/>
<path d="M11.6641 33.3334V36.6667" stroke="#00F2FF" stroke-width="3.33333" stroke-linecap="round" stroke-linejoin="round"/>
<path d="M11.6641 3.33337V6.66671" stroke="#00F2FF" stroke-width="3.33333" stroke-linecap="round" stroke-linejoin="round"/>
<path d="M29.9974 6.66663H9.9974C8.15645 6.66663 6.66406 8.15901 6.66406 9.99996V30C6.66406 31.8409 8.15645 33.3333 9.9974 33.3333H29.9974C31.8383 33.3333 33.3307 31.8409 33.3307 30V9.99996C33.3307 8.15901 31.8383 6.66663 29.9974 6.66663Z" stroke="#00F2FF" stroke-width="3.33333" stroke-linecap="round" stroke-linejoin="round"/>
<path d="M25.0026 13.3334H15.0026C14.0821 13.3334 13.3359 14.0796 13.3359 15V25C13.3359 25.9205 14.0821 26.6667 15.0026 26.6667H25.0026C25.9231 26.6667 26.6693 25.9205 26.6693 25V15C26.6693 14.0796 25.9231 13.3334 25.0026 13.3334Z" stroke="#00F2FF" stroke-width="3.33333" stroke-linecap="round" stroke-linejoin="round"/>
</svg>
