<svg width="55" height="55" viewBox="0 0 55 55" fill="none" xmlns="http://www.w3.org/2000/svg">
<rect width="55" height="55" rx="27.5" fill="#3B82F6" fill-opacity="0.2"/>
<path d="M42.5 16.7857V14.6429H39.2857V12.5H37.1429V14.6429H36.0714C34.8896 14.6429 33.9286 15.605 33.9286 16.7857V18.9286C33.9286 20.1104 34.8896 21.0714 36.0714 21.0714H40.3571V23.2143H33.9286V25.3571H37.1429V27.5H39.2857V25.3571H40.3571C41.5389 25.3571 42.5 24.3961 42.5 23.2143V21.0714C42.5 19.8907 41.5389 18.9286 40.3571 18.9286H36.0714V16.7857H42.5ZM36.0714 31.7857V33.9286H38.8421L35 37.7707L32.5443 35.3139C32.3437 35.1132 32.0716 35.0003 31.7879 35H31.7857C31.5019 35.0003 31.2299 35.1132 31.0293 35.3139L25.3571 40.985L26.8721 42.5L31.7868 37.5864L34.2425 40.0432C34.4434 40.2441 34.7159 40.3569 35 40.3569C35.2841 40.3569 35.5566 40.2441 35.7575 40.0432L40.3571 35.4436V38.2143H42.5V31.7857H36.0714ZM14.6429 42.5H12.5V37.1429C12.5 33.0071 15.8643 29.6429 20 29.6429H26.4286C28.5596 29.6429 30.5964 30.5536 32.0182 32.1425L30.4218 33.5718C29.9193 33.0099 29.3039 32.5604 28.6158 32.2526C27.9277 31.9448 27.1824 31.7857 26.4286 31.7857H20C17.0461 31.7857 14.6429 34.1889 14.6429 37.1429V42.5ZM23.2143 27.5C25.2034 27.5 27.1111 26.7098 28.5176 25.3033C29.9241 23.8968 30.7143 21.9891 30.7143 20C30.7143 18.0109 29.9241 16.1032 28.5176 14.6967C27.1111 13.2902 25.2034 12.5 23.2143 12.5C21.2252 12.5 19.3175 13.2902 17.911 14.6967C16.5045 16.1032 15.7143 18.0109 15.7143 20C15.7143 21.9891 16.5045 23.8968 17.911 25.3033C19.3175 26.7098 21.2252 27.5 23.2143 27.5ZM23.2143 14.6429C24.6351 14.6429 25.9977 15.2073 27.0024 16.2119C28.007 17.2166 28.5714 18.5792 28.5714 20C28.5714 21.4208 28.007 22.7834 27.0024 23.7881C25.9977 24.7927 24.6351 25.3571 23.2143 25.3571C21.7935 25.3571 20.4309 24.7927 19.4262 23.7881C18.4216 22.7834 17.8571 21.4208 17.8571 20C17.8571 18.5792 18.4216 17.2166 19.4262 16.2119C20.4309 15.2073 21.7935 14.6429 23.2143 14.6429Z" fill="#3B82F6"/>
</svg>
