<svg width="48" height="48" viewBox="0 0 48 48" fill="none" xmlns="http://www.w3.org/2000/svg">
<rect width="48" height="48" rx="24" fill="#3B82F6" fill-opacity="0.2"/>
<path d="M23 29L25 31C25.197 31.197 25.4308 31.3532 25.6882 31.4598C25.9456 31.5665 26.2214 31.6213 26.5 31.6213C26.7786 31.6213 27.0544 31.5665 27.3118 31.4598C27.5692 31.3532 27.803 31.197 28 31C28.197 30.803 28.3532 30.5692 28.4598 30.3118C28.5665 30.0544 28.6213 29.7786 28.6213 29.5C28.6213 29.2214 28.5665 28.9456 28.4598 28.6882C28.3532 28.4308 28.197 28.197 28 28" stroke="#3B82F6" stroke-width="2" stroke-linecap="round" stroke-linejoin="round"/>
<path d="M25.9963 26L28.4963 28.5C28.8941 28.8978 29.4337 29.1213 29.9963 29.1213C30.5589 29.1213 31.0985 28.8978 31.4963 28.5C31.8941 28.1022 32.1176 27.5626 32.1176 27C32.1176 26.4374 31.8941 25.8978 31.4963 25.5L27.6163 21.62C27.0538 21.0582 26.2913 20.7427 25.4963 20.7427C24.7013 20.7427 23.9388 21.0582 23.3763 21.62L22.4963 22.5C22.0985 22.8978 21.5589 23.1213 20.9963 23.1213C20.4337 23.1213 19.8941 22.8978 19.4963 22.5C19.0985 22.1022 18.875 21.5626 18.875 21C18.875 20.4374 19.0985 19.8978 19.4963 19.5L22.3063 16.69C23.2186 15.7802 24.4082 15.2006 25.687 15.043C26.9657 14.8854 28.2605 15.1588 29.3663 15.82L29.8363 16.1C30.2621 16.357 30.7684 16.4461 31.2563 16.35L32.9963 16" stroke="#3B82F6" stroke-width="2" stroke-linecap="round" stroke-linejoin="round"/>
<path d="M33 15L34 26H32" stroke="#3B82F6" stroke-width="2" stroke-linecap="round" stroke-linejoin="round"/>
<path d="M15 15L14 26L20.5 32.5C20.8978 32.8978 21.4374 33.1213 22 33.1213C22.5626 33.1213 23.1022 32.8978 23.5 32.5C23.8978 32.1022 24.1213 31.5626 24.1213 31C24.1213 30.4374 23.8978 29.8978 23.5 29.5" stroke="#3B82F6" stroke-width="2" stroke-linecap="round" stroke-linejoin="round"/>
<path d="M15 16H23" stroke="#3B82F6" stroke-width="2" stroke-linecap="round" stroke-linejoin="round"/>
</svg>
