<svg width="16" height="16" viewBox="0 0 16 16" fill="none" xmlns="http://www.w3.org/2000/svg">
<path d="M10.6641 5.3335C11.7249 5.3335 12.7423 5.75492 13.4925 6.50507C14.2426 7.25521 14.6641 8.27263 14.6641 9.3335V14.0002H11.9974V9.3335C11.9974 8.97987 11.8569 8.64074 11.6069 8.39069C11.3568 8.14064 11.0177 8.00016 10.6641 8.00016C10.3104 8.00016 9.9713 8.14064 9.72125 8.39069C9.47121 8.64074 9.33073 8.97987 9.33073 9.3335V14.0002H6.66406V9.3335C6.66406 8.27263 7.08549 7.25521 7.83564 6.50507C8.58578 5.75492 9.6032 5.3335 10.6641 5.3335Z" stroke="#9CA3AF" stroke-width="1.33333" stroke-linecap="round" stroke-linejoin="round"/>
<path d="M4.0026 6H1.33594V14H4.0026V6Z" stroke="#9CA3AF" stroke-width="1.33333" stroke-linecap="round" stroke-linejoin="round"/>
<path d="M2.66927 4.00016C3.40565 4.00016 4.0026 3.40321 4.0026 2.66683C4.0026 1.93045 3.40565 1.3335 2.66927 1.3335C1.93289 1.3335 1.33594 1.93045 1.33594 2.66683C1.33594 3.40321 1.93289 4.00016 2.66927 4.00016Z" stroke="#9CA3AF" stroke-width="1.33333" stroke-linecap="round" stroke-linejoin="round"/>
</svg>
