<svg width="247" height="40" viewBox="0 0 247 40" fill="none" xmlns="http://www.w3.org/2000/svg">
<g style="mix-blend-mode:difference">
<path d="M32 0H8C3.58172 0 0 3.58172 0 8V32C0 36.4183 3.58172 40 8 40H32C36.4183 40 40 36.4183 40 32V8C40 3.58172 36.4183 0 32 0Z" fill="white" fill-opacity="0.1"/>
<path d="M10 10L30 30M30 10L10 30" stroke="white" stroke-width="2.5" stroke-linecap="round"/>
<path d="M20 25C22.7614 25 25 22.7614 25 20C25 17.2386 22.7614 15 20 15C17.2386 15 15 17.2386 15 20C15 22.7614 17.2386 25 20 25Z" fill="#3B82F6"/>
<path d="M57.592 11.152V28H53.488V11.152H57.592ZM67.5261 14.464C69.0941 14.464 70.3421 14.976 71.2701 16C72.2141 17.008 72.6861 18.4 72.6861 20.176V28H68.6061V20.728C68.6061 19.832 68.3741 19.136 67.9101 18.64C67.4461 18.144 66.8221 17.896 66.0381 17.896C65.2541 17.896 64.6301 18.144 64.1661 18.64C63.7021 19.136 63.4701 19.832 63.4701 20.728V28H59.3661V14.608H63.4701V16.384C63.8861 15.792 64.4461 15.328 65.1501 14.992C65.8541 14.64 66.6461 14.464 67.5261 14.464ZM80.362 24.16L83.266 14.608H87.634L82.882 28H77.818L73.066 14.608H77.458L80.362 24.16ZM100.785 21.088C100.785 21.472 100.761 21.872 100.713 22.288H91.4254C91.4894 23.12 91.7534 23.76 92.2174 24.208C92.6974 24.64 93.2814 24.856 93.9694 24.856C94.9934 24.856 95.7054 24.424 96.1054 23.56H100.473C100.249 24.44 99.8414 25.232 99.2494 25.936C98.6734 26.64 97.9454 27.192 97.0654 27.592C96.1854 27.992 95.2014 28.192 94.1134 28.192C92.8014 28.192 91.6334 27.912 90.6094 27.352C89.5854 26.792 88.7854 25.992 88.2094 24.952C87.6334 23.912 87.3454 22.696 87.3454 21.304C87.3454 19.912 87.6254 18.696 88.1854 17.656C88.7614 16.616 89.5614 15.816 90.5854 15.256C91.6094 14.696 92.7854 14.416 94.1134 14.416C95.4094 14.416 96.5614 14.688 97.5694 15.232C98.5774 15.776 99.3614 16.552 99.9214 17.56C100.497 18.568 100.785 19.744 100.785 21.088ZM96.5854 20.008C96.5854 19.304 96.3454 18.744 95.8654 18.328C95.3854 17.912 94.7854 17.704 94.0654 17.704C93.3774 17.704 92.7934 17.904 92.3134 18.304C91.8494 18.704 91.5614 19.272 91.4494 20.008H96.5854ZM109.911 14.464C111.479 14.464 112.727 14.976 113.655 16C114.599 17.008 115.071 18.4 115.071 20.176V28H110.991V20.728C110.991 19.832 110.759 19.136 110.295 18.64C109.831 18.144 109.207 17.896 108.423 17.896C107.639 17.896 107.015 18.144 106.551 18.64C106.087 19.136 105.855 19.832 105.855 20.728V28H101.751V14.608H105.855V16.384C106.271 15.792 106.831 15.328 107.535 14.992C108.239 14.64 109.031 14.464 109.911 14.464ZM124.186 24.52V28H122.098C120.61 28 119.45 27.64 118.618 26.92C117.786 26.184 117.37 24.992 117.37 23.344V18.016H115.738V14.608H117.37V11.344H121.474V14.608H124.162V18.016H121.474V23.392C121.474 23.792 121.57 24.08 121.762 24.256C121.954 24.432 122.274 24.52 122.722 24.52H124.186ZM141.278 11.152V14.44H136.814V28H132.71V14.44H128.246V11.152H141.278ZM148.234 28.192C146.922 28.192 145.738 27.912 144.682 27.352C143.642 26.792 142.818 25.992 142.21 24.952C141.618 23.912 141.322 22.696 141.322 21.304C141.322 19.928 141.626 18.72 142.234 17.68C142.842 16.624 143.674 15.816 144.73 15.256C145.786 14.696 146.97 14.416 148.282 14.416C149.594 14.416 150.778 14.696 151.834 15.256C152.89 15.816 153.722 16.624 154.33 17.68C154.938 18.72 155.242 19.928 155.242 21.304C155.242 22.68 154.93 23.896 154.306 24.952C153.698 25.992 152.858 26.792 151.786 27.352C150.73 27.912 149.546 28.192 148.234 28.192ZM148.234 24.64C149.018 24.64 149.682 24.352 150.226 23.776C150.786 23.2 151.066 22.376 151.066 21.304C151.066 20.232 150.794 19.408 150.25 18.832C149.722 18.256 149.066 17.968 148.282 17.968C147.482 17.968 146.818 18.256 146.29 18.832C145.762 19.392 145.498 20.216 145.498 21.304C145.498 22.376 145.754 23.2 146.266 23.776C146.794 24.352 147.45 24.64 148.234 24.64ZM173.307 14.464C174.971 14.464 176.291 14.968 177.267 15.976C178.259 16.984 178.755 18.384 178.755 20.176V28H174.675V20.728C174.675 19.864 174.443 19.2 173.979 18.736C173.531 18.256 172.907 18.016 172.107 18.016C171.307 18.016 170.675 18.256 170.211 18.736C169.763 19.2 169.539 19.864 169.539 20.728V28H165.459V20.728C165.459 19.864 165.227 19.2 164.763 18.736C164.315 18.256 163.691 18.016 162.891 18.016C162.091 18.016 161.459 18.256 160.995 18.736C160.547 19.2 160.323 19.864 160.323 20.728V28H156.219V14.608H160.323V16.288C160.739 15.728 161.283 15.288 161.955 14.968C162.627 14.632 163.387 14.464 164.235 14.464C165.243 14.464 166.139 14.68 166.923 15.112C167.723 15.544 168.347 16.16 168.795 16.96C169.259 16.224 169.891 15.624 170.691 15.16C171.491 14.696 172.363 14.464 173.307 14.464ZM186.522 28.192C185.21 28.192 184.026 27.912 182.97 27.352C181.93 26.792 181.106 25.992 180.498 24.952C179.906 23.912 179.61 22.696 179.61 21.304C179.61 19.928 179.914 18.72 180.521 17.68C181.13 16.624 181.962 15.816 183.018 15.256C184.074 14.696 185.258 14.416 186.57 14.416C187.882 14.416 189.066 14.696 190.122 15.256C191.178 15.816 192.01 16.624 192.618 17.68C193.226 18.72 193.53 19.928 193.53 21.304C193.53 22.68 193.218 23.896 192.594 24.952C191.986 25.992 191.146 26.792 190.074 27.352C189.018 27.912 187.834 28.192 186.522 28.192ZM186.522 24.64C187.306 24.64 187.97 24.352 188.514 23.776C189.074 23.2 189.354 22.376 189.354 21.304C189.354 20.232 189.082 19.408 188.538 18.832C188.01 18.256 187.354 17.968 186.57 17.968C185.77 17.968 185.106 18.256 184.578 18.832C184.05 19.392 183.786 20.216 183.786 21.304C183.786 22.376 184.042 23.2 184.554 23.776C185.082 24.352 185.738 24.64 186.522 24.64ZM198.611 16.84C199.091 16.104 199.691 15.528 200.411 15.112C201.131 14.68 201.931 14.464 202.811 14.464V18.808H201.683C200.659 18.808 199.891 19.032 199.379 19.48C198.867 19.912 198.611 20.68 198.611 21.784V28H194.507V14.608H198.611V16.84ZM207.676 16.84C208.156 16.104 208.756 15.528 209.476 15.112C210.196 14.68 210.996 14.464 211.876 14.464V18.808H210.748C209.724 18.808 208.956 19.032 208.444 19.48C207.932 19.912 207.676 20.68 207.676 21.784V28H203.572V14.608H207.676V16.84ZM218.734 28.192C217.422 28.192 216.238 27.912 215.182 27.352C214.142 26.792 213.318 25.992 212.71 24.952C212.118 23.912 211.822 22.696 211.822 21.304C211.822 19.928 212.126 18.72 212.734 17.68C213.342 16.624 214.174 15.816 215.23 15.256C216.286 14.696 217.47 14.416 218.782 14.416C220.094 14.416 221.278 14.696 222.334 15.256C223.39 15.816 224.222 16.624 224.83 17.68C225.438 18.72 225.742 19.928 225.742 21.304C225.742 22.68 225.43 23.896 224.806 24.952C224.198 25.992 223.358 26.792 222.286 27.352C221.23 27.912 220.046 28.192 218.734 28.192ZM218.734 24.64C219.518 24.64 220.182 24.352 220.726 23.776C221.286 23.2 221.566 22.376 221.566 21.304C221.566 20.232 221.294 19.408 220.75 18.832C220.222 18.256 219.566 17.968 218.782 17.968C217.982 17.968 217.318 18.256 216.79 18.832C216.262 19.392 215.998 20.216 215.998 21.304C215.998 22.376 216.254 23.2 216.766 23.776C217.294 24.352 217.95 24.64 218.734 24.64ZM245.943 14.608L242.319 28H237.783L235.671 19.312L233.487 28H228.975L225.327 14.608H229.431L231.327 24.184L233.583 14.608H237.927L240.207 24.136L242.079 14.608H245.943Z" fill="white"/>
</g>
</svg>
