<svg width="55" height="55" viewBox="0 0 55 55" fill="none" xmlns="http://www.w3.org/2000/svg">
<rect width="55" height="55" rx="27.5" fill="#3B82F6" fill-opacity="0.2"/>
<path d="M41.0168 13.4758C40.6426 13.2118 40.2147 13.0522 39.7706 13.0108C39.3266 12.9694 38.88 13.0476 38.4701 13.2384L25.0404 19.005C24.7228 19.1473 24.3826 19.2198 24.0392 19.2186H15.4415C14.7199 19.2186 14.0279 19.5311 13.5177 20.0874C13.0074 20.6437 12.7208 21.3982 12.7208 22.1849V22.4222H10V29.5414H12.7208V29.8499C12.7378 30.6242 13.032 31.3606 13.5404 31.9015C14.0488 32.4425 14.7311 32.7453 15.4415 32.745L18.7065 40.2914C18.9275 40.7996 19.2756 41.2295 19.7107 41.5317C20.1457 41.8339 20.6502 41.9962 21.166 42H22.5373C23.2551 41.9937 23.9416 41.6785 24.4471 41.1228C24.9527 40.5672 25.2363 39.8163 25.2363 39.0337V33.0298L38.4701 38.7964C38.7961 38.936 39.143 39.0084 39.4932 39.0099C40.0365 38.999 40.5654 38.8178 41.0168 38.4879C41.3748 38.2243 41.6701 37.8716 41.8783 37.459C42.0864 37.0463 42.2015 36.5856 42.2139 36.1148V15.92C42.2119 15.4371 42.1018 14.9621 41.8932 14.5361C41.6846 14.1102 41.3837 13.7462 41.0168 13.4758ZM22.5155 22.1849V29.8499H15.4415V22.1849H22.5155ZM22.5155 39.0337H21.1443L18.467 32.745H22.5155V39.0337ZM26.0417 30.2059C25.7832 30.062 25.5137 29.9429 25.2363 29.8499V22.0188C25.511 21.9565 25.7804 21.8692 26.0417 21.7578L39.4932 15.92V36.0436L26.0417 30.2059ZM42.2792 23.0155V28.9481C43.0008 28.9481 43.6929 28.6356 44.2031 28.0793C44.7133 27.523 45 26.7685 45 25.9818C45 25.1951 44.7133 24.4406 44.2031 23.8843C43.6929 23.328 43.0008 23.0155 42.2792 23.0155Z" fill="#3B82F6"/>
</svg>
