<svg width="55" height="55" viewBox="0 0 55 55" fill="none" xmlns="http://www.w3.org/2000/svg">
<rect width="55" height="55" rx="27.5" fill="#3B82F6" fill-opacity="0.2"/>
<path d="M44.6082 31.9826L40.5874 28.0222C40.3361 27.7748 39.9952 27.6357 39.6398 27.6357C39.2844 27.6357 38.9436 27.7748 38.6922 28.0222L26.237 40.2901V46.1171H32.153L44.6082 33.8492C44.8595 33.6017 45.0007 33.266 45.0007 32.9159C45.0007 32.5659 44.8595 32.2301 44.6082 31.9826ZM31.0433 43.4768H28.9176V41.3831L35.619 34.7825L37.7447 36.8762L31.0433 43.4768ZM39.6398 35.0096L37.5141 32.9159L39.6398 30.8222L41.7655 32.9159L39.6398 35.0096ZM28.9176 30.2757V24.9952H31.5981V30.2757H28.9176ZM23.5564 30.2757V22.355H26.237V30.2757H23.5564ZM18.1953 30.2757V17.0745H20.8759V30.2757H18.1953Z" fill="#3B82F6"/>
<path d="M20.7221 46.117H12.6805C11.9696 46.117 11.2878 45.8368 10.7851 45.338C10.2824 44.8393 10 44.1628 10 43.4574V11.5426C10 10.8372 10.2824 10.1607 10.7851 9.66197C11.2878 9.1632 11.9696 8.883 12.6805 8.883H34.1248C34.8357 8.883 35.5175 9.1632 36.0202 9.66197C36.5229 10.1607 36.8054 10.8372 36.8054 11.5426V24.8404H34.1248V11.5426H12.6805V43.4574H20.7221V46.117Z" fill="#3B82F6"/>
</svg>
