<svg width="32" height="32" viewBox="0 0 32 32" fill="none" xmlns="http://www.w3.org/2000/svg">
<path d="M6.64063 6.64376C6.64049 6.17617 6.76373 5.71681 6.9979 5.31208C7.23208 4.90734 7.5689 4.57156 7.97436 4.33864C8.37982 4.10572 8.83955 3.9839 9.30715 3.98549C9.77474 3.98708 10.2336 4.11201 10.6375 4.34768L26.5785 13.6463C26.9808 13.8797 27.3148 14.2147 27.5471 14.6176C27.7794 15.0206 27.9019 15.4774 27.9023 15.9426C27.9027 16.4077 27.781 16.8647 27.5494 17.2681C27.3178 17.6715 26.9844 18.007 26.5825 18.2411L10.6375 27.5424C10.2336 27.778 9.77474 27.903 9.30715 27.9046C8.83955 27.9062 8.37982 27.7843 7.97436 27.5514C7.5689 27.3185 7.23208 26.9827 6.9979 26.578C6.76373 26.1732 6.64049 25.7139 6.64063 25.2463V6.64376Z" fill="black" stroke="black" stroke-width="2.6575" stroke-linecap="round" stroke-linejoin="round"/>
</svg>
