<svg width="40" height="40" viewBox="0 0 40 40" fill="none" xmlns="http://www.w3.org/2000/svg">
<path d="M7.4974 27.5C4.9974 29.6 4.16406 35.8334 4.16406 35.8334C4.16406 35.8334 10.3974 35 12.4974 32.5C13.6807 31.1 13.6641 28.95 12.3474 27.65C11.6996 27.0317 10.8462 26.6744 9.95111 26.6468C9.05599 26.6191 8.18219 26.9229 7.4974 27.5Z" stroke="#93C5FD" stroke-width="3.33333" stroke-linecap="round" stroke-linejoin="round"/>
<path d="M20 25L15 20C15.8869 17.699 17.0037 15.4934 18.3333 13.4166C20.2753 10.3116 22.9794 7.75505 26.1883 5.99012C29.3973 4.22519 33.0044 3.31058 36.6667 3.3333C36.6667 7.86663 35.3667 15.8333 26.6667 21.6666C24.5615 22.9978 22.3281 24.1145 20 25Z" stroke="#93C5FD" stroke-width="3.33333" stroke-linecap="round" stroke-linejoin="round"/>
<path d="M14.9974 20H6.66406C6.66406 20 7.58073 14.95 9.9974 13.3333C12.6974 11.5333 18.3307 13.3333 18.3307 13.3333" stroke="#93C5FD" stroke-width="3.33333" stroke-linecap="round" stroke-linejoin="round"/>
<path d="M20 25V33.3333C20 33.3333 25.05 32.4166 26.6667 30C28.4667 27.3 26.6667 21.6666 26.6667 21.6666" stroke="#93C5FD" stroke-width="3.33333" stroke-linecap="round" stroke-linejoin="round"/>
</svg>
